<svg xmlns="http://www.w3.org/2000/svg" viewBox="0 0 100 100" width="100" height="100">
  <!-- Werewolf: The Apocalypse - Wolf head silhouette with moon -->
  <defs>
    <linearGradient id="wolfGrad" x1="0%" y1="0%" x2="100%" y2="100%">
      <stop offset="0%" style="stop-color:#4a5d23;stop-opacity:1" />
      <stop offset="100%" style="stop-color:#2a3a13;stop-opacity:1" />
    </linearGradient>
  </defs>
  <!-- Background circle (moon) -->
  <circle cx="50" cy="50" r="48" fill="#1a1a2e" stroke="#4a5d23" stroke-width="2"/>
  <!-- Crescent moon -->
  <path d="M70 20 Q85 50 70 80 Q50 65 50 50 Q50 35 70 20" fill="#6b8e23" opacity="0.3"/>
  <!-- Wolf head silhouette -->
  <path d="M30 75 L35 55 L25 45 L35 50 L40 35 L45 50 L50 30 L55 50 L60 35 L65 50 L75 45 L65 55 L70 75 L55 65 L50 70 L45 65 Z" 
        fill="url(#wolfGrad)" stroke="#9acd32" stroke-width="1"/>
  <!-- Eye -->
  <circle cx="45" cy="52" r="3" fill="#9acd32"/>
  <circle cx="55" cy="52" r="3" fill="#9acd32"/>
</svg>
